<svg xmlns="http://www.w3.org/2000/svg" enable-background="new 0 0 512 512" viewBox="0 0 512 512" id="skills"><path fill="#878787" d="M489.258,212.604h-15.543c-8.614,0-16.25-5.652-18.641-13.94
			c-4.348-15.054-10.326-29.402-17.744-42.826c-4.185-7.554-2.826-16.984,3.288-23.098l11.005-10.978
			c7.609-7.609,7.609-19.946,0-27.527l-33.858-33.858c-7.581-7.609-19.918-7.609-27.527,0L379.26,71.382
			c-6.114,6.114-15.543,7.473-23.098,3.288c-13.424-7.418-27.771-13.397-42.826-17.744c-8.288-2.391-13.94-10.027-13.94-18.641
			V22.742c0-10.734-8.723-19.456-19.483-19.456h-47.826c-10.761,0-19.484,8.723-19.484,19.456v15.543
			c0,8.614-5.652,16.25-13.94,18.641c-15.054,4.348-29.402,10.326-42.826,17.744c-7.554,4.185-16.984,2.826-23.098-3.288
			l-10.978-11.005c-7.609-7.609-19.945-7.609-27.527,0L60.377,94.235c-7.609,7.581-7.609,19.918,0,27.527l11.005,10.978
			c6.114,6.114,7.473,15.543,3.288,23.098c-7.419,13.424-13.397,27.772-17.744,42.826c-2.391,8.288-10.027,13.94-18.641,13.94
			H22.742c-10.733,0-19.456,8.723-19.456,19.483v47.826c0,10.761,8.723,19.483,19.456,19.483h15.543
			c8.614,0,16.25,5.652,18.641,13.94c4.348,15.054,10.326,29.402,17.744,42.826c4.185,7.554,2.826,16.984-3.288,23.098
			l-11.005,10.978c-7.609,7.609-7.609,19.946,0,27.527l33.858,33.858c7.582,7.609,19.918,7.609,27.527,0l10.978-11.005
			c6.114-6.114,15.543-7.473,23.098-3.288c13.424,7.418,27.771,13.397,42.826,17.744c8.288,2.391,13.94,10.027,13.94,18.641v15.543
			c0,10.734,8.723,19.456,19.484,19.456h47.826c10.761,0,19.483-8.723,19.483-19.456v-15.543c0-8.614,5.652-16.25,13.94-18.641
			c15.054-4.348,29.402-10.326,42.826-17.744c7.554-4.185,16.984-2.826,23.098,3.288l10.978,11.005
			c7.609,7.609,19.945,7.609,27.527,0l33.858-33.858c7.609-7.581,7.609-19.918,0-27.527l-11.005-10.978
			c-6.114-6.114-7.473-15.543-3.288-23.098c7.419-13.424,13.397-27.772,17.744-42.826c2.391-8.288,10.027-13.94,18.641-13.94h15.543
			c10.734,0,19.456-8.723,19.456-19.483v-47.826C508.715,221.326,499.992,212.604,489.258,212.604z M376.814,367.847
			c-30.081,32.473-73.07,52.798-120.814,52.798s-90.733-20.326-120.814-52.798C107.985,338.499,91.355,299.179,91.355,256
			c0-90.923,73.722-164.645,164.645-164.645S420.645,165.077,420.645,256C420.645,299.179,404.015,338.499,376.814,367.847z"></path><path fill="#a1d51c" d="M376.814,367.847c-30.081,32.473-73.07,52.798-120.814,52.798s-90.733-20.326-120.814-52.798
			c5.625-13.125,15.38-24.293,27.88-31.902c26.603-16.087,54.809-26.06,55.081-26.168v-0.082h75.706v0.082
			c6.413,2.799,53.369,20.163,69.755,38.016C369.151,353.635,373.635,360.428,376.814,367.847z"></path><path fill="#fff" d="M240.653 402.246c-2.967-.29-5.872-.682-8.887-1.203-1.773-.305-2.962-1.99-2.656-3.76.305-1.773 2.025-2.967 3.76-2.656 2.857.491 5.61.862 8.414 1.137 1.791.176 3.101 1.768 2.926 3.557C244.037 401.086 242.471 402.419 240.653 402.246zM214.865 397.157c-12.679-3.68-25.099-9.299-35.894-15.963-1.532-.944-2.007-2.951-1.061-4.48.946-1.529 2.959-2.007 4.48-1.061 10.297 6.355 22.15 11.719 34.291 15.25 1.728.501 2.72 2.308 2.219 4.035C218.394 396.686 216.563 397.657 214.865 397.157z"></path><path fill="#f9e109" d="M293.829,277.984v31.738c0,20.68-16.933,37.482-37.822,37.482
			c-20.889,0-37.822-16.802-37.822-37.482v-31.738H293.829z"></path><ellipse cx="193.603" cy="238.859" fill="#f9e109" rx="13.935" ry="16.855"></ellipse><ellipse cx="318.411" cy="238.859" fill="#f9e109" rx="13.935" ry="16.855"></ellipse><path fill="#f9e109" d="M316.094,234.075v14.645c0,32.488-24.894,60.387-57.173,61.83
			c-34.5,1.65-63.009-25.887-63.009-60.129v-23.154c1.343,0,2.737-0.98,2.685-2.682c-0.826-29.497,20.659-50.382,20.659-50.382
			c6.921,24.34,50.201,23.515,50.201,23.515c12.705,0.258,22.57-1.96,30.213-5.621c11.827,11.448,13.687,28.414,13.428,39.45
			C313.047,233.353,314.648,234.333,316.094,234.075z"></path><path fill="#f8664f" d="M313.097,231.571c0.335-13.925-2.681-37.434-25.048-47.156l33.209-26.3
			c0,0,15.745,37.886-3.305,74.641C316.698,235.177,313.031,234.296,313.097,231.571z"></path><path fill="#f8664f" d="M269.456,197.719c0,0-43.28,0.825-50.201-23.515c0,0-21.484,20.906-20.668,50.385
			c0.079,2.837-3.792,3.727-4.873,1.103c-10.563-25.649-22.079-73.276,29.363-87.844c0,0,26.598-37.748,59.394-5.311
			c7.785,7.724,15.332,20.202,40.698,13.334c1.677-0.454,3.312,0.851,3.236,2.587C325.887,160.445,320.253,198.676,269.456,197.719z
			"></path><path d="M477.502 396.188c-1.786.216-3.058 1.839-2.842 3.626.323 2.638.332 6.03-.069 8.841-.28 1.958 1.238 3.715 3.229 3.715 1.595 0 2.99-1.173 3.218-2.799.491-3.447.47-7.404.089-10.541C480.911 397.241 479.273 395.987 477.502 396.188zM473.726 422.63c-1.521-.949-3.534-.483-4.486 1.046-3.799 6.108-5.407 6.348-37.105 38.446-1.272 1.272-1.272 3.333 0 4.605 1.272 1.272 3.333 1.272 4.605 0 31.357-31.816 33.594-32.486 38.031-39.611C475.721 425.589 475.255 423.582 473.726 422.63zM55.452 74.29l6.852-6.852c1.272-1.272 1.272-3.333 0-4.605-1.272-1.272-3.333-1.272-4.605 0l-6.852 6.852c-1.272 1.272-1.272 3.333 0 4.605C52.12 75.562 54.18 75.562 55.452 74.29zM75.359 54.386c3.73-2.836 12.651-17.283 32.635-17.283 3.86 0 7.656.588 11.279 1.745 1.72.557 3.544-.399 4.094-2.109.547-1.715-.397-3.547-2.109-4.094-4.267-1.364-8.729-2.056-13.263-2.056-23.067 0-33.637 16.49-37.24 19.191-1.272 1.272-1.272 3.336 0 4.605C72.026 55.659 74.086 55.659 75.359 54.386zM489.249 209.354h-15.535c-7.17 0-13.551-4.768-15.517-11.594-4.353-15.113-10.416-29.747-18.023-43.501-3.45-6.236-2.318-14.133 2.753-19.204l10.996-10.996c8.857-8.859 8.857-23.275 0-32.134l-33.846-33.846c-8.859-8.859-23.275-8.859-32.134 0l-10.996 10.996c-5.071 5.071-12.965 6.205-19.204 2.753-13.754-7.607-28.389-13.67-43.502-18.023-6.826-1.967-11.594-8.348-11.594-15.517V22.751c0-12.53-10.192-22.723-22.72-22.723h-47.852c-12.528 0-22.72 10.192-22.72 22.723v15.535c0 7.17-4.768 13.551-11.594 15.517-15.113 4.353-29.747 10.416-43.501 18.023-6.233 3.453-14.133 2.318-19.204-2.753l-10.996-10.996c-8.859-8.859-23.275-8.859-32.134 0L58.078 91.924c-8.857 8.859-8.857 23.275 0 32.134l10.996 10.996c5.071 5.071 6.203 12.968 2.753 19.204-7.607 13.754-13.67 28.389-18.023 43.501-1.967 6.826-8.348 11.594-15.517 11.594H22.751c-12.53 0-22.723 10.192-22.723 22.72v47.852c0 12.528 10.192 22.72 22.723 22.72h15.535c7.17 0 13.551 4.768 15.517 11.594 4.353 15.113 10.416 29.747 18.023 43.502 3.45 6.236 2.318 14.133-2.753 19.204l-10.996 10.996c-8.857 8.859-8.857 23.275 0 32.134l33.846 33.846c8.859 8.859 23.275 8.859 32.134 0l10.996-10.996c5.071-5.068 12.968-6.208 19.204-2.753 13.754 7.607 28.389 13.67 43.501 18.023 6.826 1.967 11.594 8.348 11.594 15.517v15.535c0 12.53 10.192 22.723 22.72 22.723h47.852c12.528 0 22.72-10.192 22.72-22.723v-15.535c0-7.17 4.768-13.551 11.594-15.517 15.113-4.353 29.747-10.416 43.502-18.023 6.233-3.453 14.133-2.318 19.204 2.753l10.996 10.996c8.859 8.859 23.275 8.859 32.134 0l33.846-33.846c8.857-8.859 8.857-23.275 0-32.134l-10.996-10.996c-5.071-5.071-6.203-12.968-2.753-19.204 7.607-13.754 13.67-28.389 18.023-43.502 1.967-6.826 8.348-11.594 15.517-11.594h15.535c12.53 0 22.723-10.192 22.723-22.72v-47.852C511.971 219.546 501.779 209.354 489.249 209.354zM505.458 279.926c0 8.935-7.271 16.207-16.209 16.207h-15.535c-10.057 0-19.011 6.704-21.776 16.306-4.218 14.642-10.093 28.824-17.464 42.148-4.849 8.762-3.267 19.85 3.847 26.964l10.996 10.996c6.317 6.32 6.317 16.604 0 22.924l-33.846 33.846c-6.32 6.32-16.604 6.315-22.924 0l-10.996-10.996c-7.114-7.116-18.196-8.696-26.964-3.847-13.324 7.371-27.506 13.245-42.148 17.464-9.602 2.766-16.306 11.719-16.306 21.776v15.535c0 8.938-7.271 16.209-16.207 16.209h-47.852c-8.935 0-16.207-7.271-16.207-16.209v-15.535c0-10.057-6.704-19.011-16.306-21.776-14.642-4.218-28.824-10.093-42.148-17.464-8.784-4.856-19.87-3.252-26.964 3.847l-10.996 10.996c-6.317 6.32-16.601 6.315-22.924 0l-33.846-33.846c-6.317-6.32-6.317-16.604 0-22.924l10.996-10.996c7.114-7.114 8.696-18.202 3.847-26.964-7.371-13.324-13.245-27.506-17.464-42.148-2.766-9.602-11.719-16.306-21.776-16.306H22.751c-8.938 0-16.209-7.271-16.209-16.207v-47.852c0-8.935 7.271-16.207 16.209-16.207h15.535c10.057 0 19.011-6.704 21.776-16.306 4.218-14.642 10.093-28.824 17.464-42.148 4.849-8.762 3.267-19.85-3.847-26.964l-10.996-10.996c-6.317-6.32-6.317-16.604 0-22.924l33.846-33.846c6.317-6.317 16.601-6.317 22.924 0l10.996 10.996c7.114 7.114 18.194 8.694 26.964 3.847 13.324-7.371 27.506-13.245 42.148-17.464 9.602-2.766 16.306-11.719 16.306-21.776V22.751c0-8.938 7.271-16.209 16.207-16.209h47.852c8.935 0 16.207 7.271 16.207 16.209v15.535c0 10.057 6.704 19.011 16.306 21.776 14.642 4.218 28.824 10.093 42.148 17.464 8.765 4.844 19.853 3.269 26.964-3.847l10.996-10.996c6.32-6.317 16.604-6.317 22.924 0l33.846 33.846c6.317 6.32 6.317 16.604 0 22.924l-10.996 10.996c-7.114 7.114-8.696 18.202-3.847 26.964 7.371 13.324 13.245 27.506 17.464 42.148 2.766 9.602 11.719 16.306 21.776 16.306h15.535c8.938 0 16.209 7.271 16.209 16.207V279.926z"></path><path d="M221.917 233.631c1.562.888 3.549.346 4.442-1.216 1.812-3.174 6.374-3.172 8.185 0 .894 1.568 2.887 2.103 4.442 1.216 1.562-.89 2.107-2.88 1.216-4.442-4.309-7.555-15.191-7.559-19.502 0C219.811 230.751 220.355 232.741 221.917 233.631zM273.018 233.631c1.555.887 3.548.352 4.442-1.216 1.816-3.181 6.381-3.165 8.185 0 .888 1.562 2.878 2.104 4.442 1.216 1.562-.89 2.107-2.88 1.216-4.442-4.316-7.574-15.208-7.538-19.502 0C270.912 230.753 271.456 232.741 273.018 233.631zM234.295 269.121c-1.331 1.211-1.43 3.269-.219 4.6 11.746 12.913 32.105 12.915 43.853 0 1.211-1.331 1.112-3.389-.219-4.6-1.328-1.209-3.384-1.114-4.6.219-9.168 10.074-25.049 10.073-34.215 0C237.681 268.004 235.621 267.91 234.295 269.121z"></path><path d="M256,88.098c-92.583,0-167.902,75.32-167.902,167.902c0,92.558,75.038,167.902,167.902,167.902
				c92.658,0,167.902-75.137,167.902-167.902C423.902,163.417,348.583,88.098,256,88.098z M256,417.389
				c-45.268,0-87.435-19.211-116.936-50.23c5.489-11.718,14.335-21.517,25.687-28.427c20.175-12.2,41.13-20.797,50.463-24.378
				c2.329,20.288,19.724,36.107,40.794,36.107c21.019,0,38.377-15.748,40.77-35.968c12.659,5.102,50.582,20.412,64.465,35.541
				c8.271,8.715,9.543,14.118,11.943,16.87C342.792,398.994,300.2,417.389,256,417.389z M316.37,228.609
				c-0.131-10.239-2.276-24.513-11.384-35.519c8.285-4.82,13.809-11.318,17.482-17.98
				C324.875,188.476,325.789,208.613,316.37,228.609z M329.089,238.859c0,7.133-4.351,12.937-9.842,13.492
				c0.063-1.203,0.103-2.411,0.103-3.63v-12.686c1.342-1.118,2.137-2.537,4.675-8.728
				C327.059,229.708,329.089,233.985,329.089,238.859z M269.518,194.462c-16.99,0-42.445-4.677-47.132-21.148
				c-0.67-2.364-3.637-3.165-5.404-1.443c-0.88,0.857-20.758,20.532-21.644,49.091c-6.419-16.746-11.49-39.021-3.025-56.447
				c5.442-11.21,16.092-19.128,31.653-23.534c0.717-0.204,1.343-0.649,1.773-1.259c0.109-0.155,11.144-15.568,27.066-16.983
				c10.591-0.944,19.881,4.701,27.374,12.111c8.765,8.689,17.066,21.049,42.927,14.406
				C322.242,163.883,315.029,195.422,269.518,194.462z M190.702,226.932c0.426,1.034,1.119,1.857,1.951,2.468v21.023
				c0,0.642,0.029,1.28,0.048,1.92c-5.46-0.594-9.777-6.378-9.777-13.483c0-6.036,3.131-11.08,7.415-12.84
				C190.46,226.32,190.58,226.636,190.702,226.932z M199.167,229.593c1.693-1.069,2.735-2.955,2.677-5.094
				c-0.575-20.682,10.617-37.156,16.375-44.222c11.279,20.972,48.76,20.756,51.236,20.697c9.899,0.196,20.187-1.05,29.413-4.872
				c9.706,10.737,11.204,25.869,10.975,35.387c-0.054,2.252,1.114,4.188,2.995,5.2v12.029c0,31.49-23.745,57.22-54.07,58.576
				c-32.603,1.608-59.599-24.449-59.599-56.874V229.593z M259.066,313.805c11.628-0.521,22.39-4.246,31.505-10.333v6.25
				c0,18.871-15.505,34.225-34.564,34.225s-34.566-15.354-34.566-34.225v-6.111C232.445,310.825,245.37,314.438,259.066,313.805z
				 M377.574,362.072c-3.078-6.006-6.91-11.571-11.569-16.482c-14.45-15.746-49.379-30.082-68.921-37.997v-9.131
				c11.268-9.865,19.092-23.745,21.484-39.501c9.406-0.1,17.033-9.075,17.033-20.103c0-7.755-3.779-14.479-9.288-17.832
				c7.521-23.351,3.652-45.125,0.537-56.318c2.044-6.593,2.654-12.519,2.81-16.115c0.079-1.847-0.738-3.638-2.18-4.793
				c-1.448-1.158-3.379-1.555-5.162-1.074c-22.635,6.124-28.54-3.585-37.558-12.505c-10.375-10.263-21.313-14.965-32.533-13.97
				c-16.594,1.473-28.175,14.998-31.103,18.771c-16.848,4.999-28.511,13.96-34.67,26.648c-8.879,18.281-4.698,40.652,1.542,58.202
				c-6.731,2.725-11.584,10.194-11.584,18.985c0,10.944,7.513,19.857,16.82,20.091c1.953,14.747,8.956,28.779,21.697,39.701v8.843
				c-7.896,2.953-31.195,12.148-53.554,25.67c-11.683,7.11-20.905,17.039-26.987,28.864C108.722,332.641,94.611,295.194,94.611,256
				c0-88.99,72.399-161.389,161.389-161.389S417.389,167.01,417.389,256C417.389,295.213,403.263,332.678,377.574,362.072z"></path></svg>